HIERARCHY
ROOT mixamorig:Hips
{
	OFFSET 0.000000 104.274902 0.000000
	CHANNELS 6 Xposition Yposition Zposition Xrotation Yrotation Zrotation
	JOINT mixamorig:Spine
	{
		OFFSET 0.000000 10.181549 0.131524
		CHANNELS 6 Xposition Yposition Zposition Xrotation Yrotation Zrotation
		JOINT mixamorig:Spine1
		{
			OFFSET 0.000000 9.893990 -1.470706
			CHANNELS 3 Xrotation Yrotation Zrotation
			JOINT mixamorig:Spine2
			{
				OFFSET 0.000000 9.220787 -1.370637
				CHANNELS 3 Xrotation Yrotation Zrotation
				JOINT mixamorig:Neck
				{
					OFFSET 0.000000 16.740372 -2.049022
					CHANNELS 6 Xposition Yposition Zposition Xrotation Yrotation Zrotation
					JOINT mixamorig:Head
					{
						OFFSET 0.000000 9.617859 1.684976
						CHANNELS 6 Xposition Yposition Zposition Xrotation Yrotation Zrotation
						JOINT mixamorig:HeadTop_End
						{
							OFFSET 0.000000 22.037384 7.501072
							CHANNELS 6 Xposition Yposition Zposition Xrotation Yrotation Zrotation
							End Site
							{
								OFFSET 0.000000 23.106567 -2.828246
							}
						}
					}
				}
				JOINT mixamorig:RightShoulder
				{
					OFFSET -4.570000 11.014877 -2.160840
					CHANNELS 6 Xposition Yposition Zposition Xrotation Yrotation Zrotation
					JOINT mixamorig:RightArm
					{
						OFFSET -10.592867 -0.524796 -2.232105
						CHANNELS 3 Xrotation Yrotation Zrotation
						JOINT mixamorig:RightForeArm
						{
							OFFSET -27.841497 0.000000 -0.000002
							CHANNELS 3 Xrotation Yrotation Zrotation
							JOINT mixamorig:RightHand
							{
								OFFSET -28.328812 0.000000 -0.000001
								CHANNELS 3 Xrotation Yrotation Zrotation
								JOINT mixamorig:RightHandThumb1
								{
									OFFSET -2.464798 -1.573990 2.681911
									CHANNELS 6 Xposition Yposition Zposition Xrotation Yrotation Zrotation
									JOINT mixamorig:RightHandThumb2
									{
										OFFSET -3.244781 -1.873383 1.873376
										CHANNELS 3 Xrotation Yrotation Zrotation
										JOINT mixamorig:RightHandThumb3
										{
											OFFSET -2.646263 -1.527817 1.527818
											CHANNELS 6 Xposition Yposition Zposition Xrotation Yrotation Zrotation
											JOINT mixamorig:RightHandThumb4
											{
												OFFSET -1.994591 -1.151581 1.151575
												CHANNELS 6 Xposition Yposition Zposition Xrotation Yrotation Zrotation
												End Site
												{
													OFFSET -1.860176 -1.142715 1.365483
												}
											}
										}
									}
								}
								JOINT mixamorig:RightHandIndex1
								{
									OFFSET -9.108299 -0.517883 2.259803
									CHANNELS 6 Xposition Yposition Zposition Xrotation Yrotation Zrotation
									JOINT mixamorig:RightHandIndex2
									{
										OFFSET -3.699997 0.000000 0.000000
										CHANNELS 3 Xrotation Yrotation Zrotation
										JOINT mixamorig:RightHandIndex3
										{
											OFFSET -2.850006 0.000000 0.000000
											CHANNELS 3 Xrotation Yrotation Zrotation
											JOINT mixamorig:RightHandIndex4
											{
												OFFSET -2.772194 0.000000 0.000000
												CHANNELS 3 Xrotation Yrotation Zrotation
												End Site
												{
													OFFSET -2.772202 0.000000 -0.000484
												}
											}
										}
									}
								}
								JOINT mixamorig:RightHandMiddle1
								{
									OFFSET -9.532501 0.000000 -0.000000
									CHANNELS 6 Xposition Yposition Zposition Xrotation Yrotation Zrotation
									JOINT mixamorig:RightHandMiddle2
									{
										OFFSET -3.699997 0.000000 0.000000
										CHANNELS 3 Xrotation Yrotation Zrotation
										JOINT mixamorig:RightHandMiddle3
										{
											OFFSET -2.949997 0.000000 0.000000
											CHANNELS 3 Xrotation Yrotation Zrotation
											JOINT mixamorig:RightHandMiddle4
											{
												OFFSET -2.946594 0.000000 0.000000
												CHANNELS 3 Xrotation Yrotation Zrotation
												End Site
												{
													OFFSET -2.946602 0.000000 -0.000982
												}
											}
										}
									}
								}
								JOINT mixamorig:RightHandRing1
								{
									OFFSET -9.103600 -0.043106 -1.865100
									CHANNELS 6 Xposition Yposition Zposition Xrotation Yrotation Zrotation
									JOINT mixamorig:RightHandRing2
									{
										OFFSET -3.379303 0.000000 0.000000
										CHANNELS 3 Xrotation Yrotation Zrotation
										JOINT mixamorig:RightHandRing3
										{
											OFFSET -2.889694 0.000000 0.000000
											CHANNELS 3 Xrotation Yrotation Zrotation
											JOINT mixamorig:RightHandRing4
											{
												OFFSET -2.638802 0.000000 0.000000
												CHANNELS 3 Xrotation Yrotation Zrotation
												End Site
												{
													OFFSET -2.638802 0.000000 0.004218
												}
											}
										}
									}
								}
								JOINT mixamorig:RightHandPinky1
								{
									OFFSET -8.076698 -0.486725 -3.806299
									CHANNELS 6 Xposition Yposition Zposition Xrotation Yrotation Zrotation
									JOINT mixamorig:RightHandPinky2
									{
										OFFSET -3.600006 0.000000 0.000000
										CHANNELS 3 Xrotation Yrotation Zrotation
										JOINT mixamorig:RightHandPinky3
										{
											OFFSET -2.099998 0.000000 0.000000
											CHANNELS 3 Xrotation Yrotation Zrotation
											JOINT mixamorig:RightHandPinky4
											{
												OFFSET -2.115791 0.000000 0.000000
												CHANNELS 3 Xrotation Yrotation Zrotation
												End Site
												{
													OFFSET -2.115799 0.000000 0.000174
												}
											}
										}
									}
								}
							}
						}
					}
				}
				JOINT mixamorig:LeftShoulder
				{
					OFFSET 4.570400 11.014679 -2.160816
					CHANNELS 6 Xposition Yposition Zposition Xrotation Yrotation Zrotation
					JOINT mixamorig:LeftArm
					{
						OFFSET 10.592373 -0.524597 -2.232116
						CHANNELS 3 Xrotation Yrotation Zrotation
						JOINT mixamorig:LeftForeArm
						{
							OFFSET 27.841488 0.000000 0.000001
							CHANNELS 3 Xrotation Yrotation Zrotation
							JOINT mixamorig:LeftHand
							{
								OFFSET 28.328808 0.000000 -0.000000
								CHANNELS 3 Xrotation Yrotation Zrotation
								JOINT mixamorig:LeftHandThumb1
								{
									OFFSET 2.466103 -1.576202 2.681698
									CHANNELS 6 Xposition Yposition Zposition Xrotation Yrotation Zrotation
									JOINT mixamorig:LeftHandThumb2
									{
										OFFSET 3.243317 -1.872528 1.872530
										CHANNELS 3 Xrotation Yrotation Zrotation
										JOINT mixamorig:LeftHandThumb3
										{
											OFFSET 2.647881 -1.528763 1.528754
											CHANNELS 6 Xposition Yposition Zposition Xrotation Yrotation Zrotation
											JOINT mixamorig:LeftHandThumb4
											{
												OFFSET 1.998924 -1.154083 1.154080
												CHANNELS 6 Xposition Yposition Zposition Xrotation Yrotation Zrotation
												End Site
												{
													OFFSET 1.884041 -1.149155 1.337651
												}
											}
										}
									}
								}
								JOINT mixamorig:LeftHandIndex1
								{
									OFFSET 9.109299 -0.518005 2.259900
									CHANNELS 6 Xposition Yposition Zposition Xrotation Yrotation Zrotation
									JOINT mixamorig:LeftHandIndex2
									{
										OFFSET 3.699997 0.000000 0.000000
										CHANNELS 3 Xrotation Yrotation Zrotation
										JOINT mixamorig:LeftHandIndex3
										{
											OFFSET 2.850006 0.000000 0.000000
											CHANNELS 3 Xrotation Yrotation Zrotation
											JOINT mixamorig:LeftHandIndex4
											{
												OFFSET 2.774895 0.000000 0.000000
												CHANNELS 3 Xrotation Yrotation Zrotation
												End Site
												{
													OFFSET 2.774902 0.000000 -0.000072
												}
											}
										}
									}
								}
								JOINT mixamorig:LeftHandMiddle1
								{
									OFFSET 9.533401 0.000000 0.000000
									CHANNELS 6 Xposition Yposition Zposition Xrotation Yrotation Zrotation
									JOINT mixamorig:LeftHandMiddle2
									{
										OFFSET 3.699997 0.000000 0.000000
										CHANNELS 3 Xrotation Yrotation Zrotation
										JOINT mixamorig:LeftHandMiddle3
										{
											OFFSET 2.949997 0.000000 0.000000
											CHANNELS 3 Xrotation Yrotation Zrotation
											JOINT mixamorig:LeftHandMiddle4
											{
												OFFSET 2.952896 0.000000 0.000000
												CHANNELS 3 Xrotation Yrotation Zrotation
												End Site
												{
													OFFSET 2.952904 0.000000 0.000165
												}
											}
										}
									}
								}
								JOINT mixamorig:LeftHandRing1
								{
									OFFSET 9.104500 -0.042999 -1.865101
									CHANNELS 6 Xposition Yposition Zposition Xrotation Yrotation Zrotation
									JOINT mixamorig:LeftHandRing2
									{
										OFFSET 3.149994 0.000000 0.000000
										CHANNELS 3 Xrotation Yrotation Zrotation
										JOINT mixamorig:LeftHandRing3
										{
											OFFSET 2.950005 0.000000 0.000000
											CHANNELS 3 Xrotation Yrotation Zrotation
											JOINT mixamorig:LeftHandRing4
											{
												OFFSET 2.644302 0.000000 0.000000
												CHANNELS 3 Xrotation Yrotation Zrotation
												End Site
												{
													OFFSET 2.644302 0.000000 0.000083
												}
											}
										}
									}
								}
								JOINT mixamorig:LeftHandPinky1
								{
									OFFSET 8.077805 -0.486893 -3.806302
									CHANNELS 6 Xposition Yposition Zposition Xrotation Yrotation Zrotation
									JOINT mixamorig:LeftHandPinky2
									{
										OFFSET 3.600006 0.000000 0.000000
										CHANNELS 3 Xrotation Yrotation Zrotation
										JOINT mixamorig:LeftHandPinky3
										{
											OFFSET 2.099998 0.000000 0.000000
											CHANNELS 3 Xrotation Yrotation Zrotation
											JOINT mixamorig:LeftHandPinky4
											{
												OFFSET 2.125496 0.000000 0.000000
												CHANNELS 3 Xrotation Yrotation Zrotation
												End Site
												{
													OFFSET 2.125504 0.000000 -0.001254
												}
											}
										}
									}
								}
							}
						}
					}
				}
			}
		}
	}
	JOINT mixamorig:RightUpLeg
	{
		OFFSET -8.207800 -6.751701 -1.599544
		CHANNELS 6 Xposition Yposition Zposition Xrotation Yrotation Zrotation
		JOINT mixamorig:RightLeg
		{
			OFFSET 0.000004 -44.370152 0.345934
			CHANNELS 3 Xrotation Yrotation Zrotation
			JOINT mixamorig:RightFoot
			{
				OFFSET 0.000004 -44.423664 -3.043535
				CHANNELS 3 Xrotation Yrotation Zrotation
				JOINT mixamorig:RightToeBase
				{
					OFFSET 0.000001 -8.728691 10.710592
					CHANNELS 3 Xrotation Yrotation Zrotation
					JOINT mixamorig:RightToe_End
					{
						OFFSET 0.000000 -0.000665 9.278101
						CHANNELS 3 Xrotation Yrotation Zrotation
						End Site
						{
							OFFSET 0.000000 -0.000665 9.278103
						}
					}
				}
			}
		}
	}
	JOINT mixamorig:LeftUpLeg
	{
		OFFSET 8.207800 -6.751701 -1.599544
		CHANNELS 6 Xposition Yposition Zposition Xrotation Yrotation Zrotation
		JOINT mixamorig:LeftLeg
		{
			OFFSET 0.000004 -44.370037 0.346940
			CHANNELS 3 Xrotation Yrotation Zrotation
			JOINT mixamorig:LeftFoot
			{
				OFFSET 0.000004 -44.423611 -3.044388
				CHANNELS 3 Xrotation Yrotation Zrotation
				JOINT mixamorig:LeftToeBase
				{
					OFFSET 0.000001 -8.728690 10.710592
					CHANNELS 3 Xrotation Yrotation Zrotation
					JOINT mixamorig:LeftToe_End
					{
						OFFSET 0.000000 -0.000680 9.278101
						CHANNELS 3 Xrotation Yrotation Zrotation
						End Site
						{
							OFFSET 0.000000 -0.000680 9.278101
						}
					}
				}
			}
		}
	}
}
MOTION
Frames: 4
Frame Time: 0.033333
-0.649194 63.975914 1.486794 -18.648506 -6.372385 -7.781719 0.000001 10.181555 0.131523 5.727126 2.778905 3.496043 10.380952 0.463935 2.273227 10.362951 0.510512 2.335686 -0.000000 16.740368 -2.049019 -3.136754 0.717941 -0.624971 0.000001 9.617847 1.684981 -10.912868 1.841606 3.512162 -0.000001 22.037369 7.501072 -0.000001 0.000000 0.000001 -4.569998 11.014897 -2.160841 3.337535 13.554488 10.933215 -21.737975 27.564750 22.577694 -0.000288 82.533889 0.000332 -10.350224 5.923756 -25.760979 -2.464801 -1.573991 2.681903 7.564648 7.028701 27.703720 -9.818514 -72.226675 -19.707088 -2.646269 -1.527819 1.527818 -2.645433 -31.790023 -7.915083 -1.994571 -1.151587 1.151566 0.000001 0.000000 -0.000002 -9.108298 -0.517880 2.259794 6.036402 -6.888420 82.440971 4.121024 -6.349620 65.937868 1.115598 -3.782564 32.854573 -0.000003 0.000002 0.000001 -9.532488 -0.000002 -0.000008 6.036399 -6.888421 82.440971 4.121022 -6.349616 65.937861 1.115597 -3.782560 32.854576 -0.000000 0.000001 0.000001 -9.103589 -0.043104 -1.865109 6.036402 -6.888420 82.440964 4.121018 -6.349615 65.937868 1.115599 -3.782562 32.854573 0.000004 0.000001 0.000002 -8.076704 -0.486717 -3.806307 6.036406 -6.888423 82.440971 4.121030 -6.349622 65.937861 1.115590 -3.782561 32.854596 -0.000002 0.000001 0.000000 4.570400 11.014708 -2.160815 1.258696 -0.040421 -10.746706 -31.711008 -43.537033 -47.290874 0.000024 -80.053137 0.000016 -1.885765 -0.695074 28.486048 2.466100 -1.576204 2.681697 18.241726 -23.305278 -17.628945 53.671606 63.248453 -40.439515 2.647886 -1.528764 1.528750 10.741893 32.760811 -5.296230 1.998922 -1.154063 1.154087 0.000002 0.000003 -0.000002 9.109303 -0.518016 2.259902 6.090335 6.835968 -83.384725 5.535321 6.749096 -78.694550 1.552529 4.360280 -39.183941 -0.000001 -0.000001 0.000002 9.533419 -0.000000 -0.000004 6.088414 6.835751 -83.368510 5.537221 6.749464 -78.710779 1.552541 4.360280 -39.183931 -0.000001 -0.000001 0.000000 9.104502 -0.042997 -1.865104 6.090338 6.835969 -83.384725 5.535316 6.749093 -78.694550 1.552533 4.360281 -39.183941 -0.000002 -0.000001 -0.000001 8.077806 -0.486896 -3.806304 10.148458 7.303609 -83.373975 5.544914 2.664448 -78.811347 1.552530 4.360283 -39.183941 0.000000 -0.000000 0.000002 -8.207802 -6.751707 -1.599552 -68.476417 -4.095523 -3.232919 48.603780 -1.224337 -0.144061 36.898089 3.471117 12.248933 -0.000013 0.000001 0.000001 -0.000000 0.000001 -0.000003 8.207800 -6.751703 -1.599554 -69.807245 -0.560016 14.437280 93.022969 9.756160 0.539768 -6.279354 2.849461 5.754883 -0.116338 0.000013 -0.000002 -0.000000 -0.000001 0.000000 
-0.651113 63.979454 1.486143 -18.645484 -6.371354 -7.752701 0.000001 10.181543 0.131525 5.705206 2.766350 3.514113 10.353228 0.457670 2.304113 10.336168 0.502909 2.362281 -0.000000 16.740366 -2.049021 -3.134923 0.715734 -0.577176 -0.000000 9.617846 1.684977 -10.936986 1.895961 3.442662 0.000000 22.037384 7.501078 -0.000000 0.000000 -0.000000 -4.569997 11.014862 -2.160840 3.335782 13.548213 10.933637 -21.830751 27.737185 22.494473 -0.000371 82.768376 0.000421 -9.735852 5.909507 -25.984594 -2.464793 -1.573995 2.681907 7.564646 7.028706 27.703722 -9.818516 -72.226675 -19.707059 -2.646260 -1.527827 1.527812 -2.645431 -31.790023 -7.915087 -1.994578 -1.151586 1.151572 0.000004 -0.000002 -0.000002 -9.108316 -0.517881 2.259797 6.036403 -6.888417 82.440971 4.121022 -6.349609 65.937868 1.115595 -3.782564 32.854569 -0.000002 -0.000002 -0.000001 -9.532491 0.000006 -0.000002 6.036398 -6.888420 82.440971 4.121022 -6.349610 65.937868 1.115598 -3.782566 32.854569 -0.000002 0.000000 0.000003 -9.103588 -0.043100 -1.865101 6.036403 -6.888417 82.440964 4.121019 -6.349615 65.937868 1.115596 -3.782562 32.854569 -0.000001 0.000005 0.000002 -8.076715 -0.486713 -3.806300 6.036405 -6.888422 82.440971 4.121027 -6.349616 65.937861 1.115586 -3.782565 32.854600 -0.000002 0.000002 0.000002 4.570400 11.014695 -2.160816 1.258650 -0.041058 -10.716425 -31.863416 -43.061549 -47.374161 -0.000021 -80.344567 -0.000009 -2.721749 -0.788072 27.483004 2.466108 -1.576203 2.681703 18.241724 -23.305282 -17.628949 53.671613 63.248460 -40.439528 2.647884 -1.528769 1.528752 10.741894 32.760808 -5.296229 1.998925 -1.154085 1.154081 0.000001 -0.000002 -0.000004 9.109318 -0.518016 2.259906 6.090335 6.835967 -83.384725 5.535318 6.749089 -78.694550 1.552536 4.360279 -39.183941 -0.000004 0.000002 -0.000002 9.533417 -0.000002 -0.000000 6.088411 6.835753 -83.368517 5.537224 6.749458 -78.710772 1.552541 4.360282 -39.183928 -0.000002 0.000002 -0.000002 9.104498 -0.043001 -1.865095 6.090340 6.835968 -83.384725 5.535318 6.749093 -78.694557 1.552540 4.360279 -39.183941 -0.000000 0.000007 -0.000001 8.077819 -0.486897 -3.806301 10.148459 7.303612 -83.373981 5.544911 2.664445 -78.811354 1.552531 4.360285 -39.183945 -0.000001 0.000005 0.000002 -8.207800 -6.751709 -1.599549 -68.488691 -4.070561 -3.248403 48.611594 -1.222435 -0.144469 36.906569 3.469092 12.250558 -0.000015 0.000002 0.000001 0.000000 -0.000001 -0.000001 8.207799 -6.751706 -1.599549 -69.803222 -0.530234 14.422902 93.012198 9.755803 0.539887 -6.279645 2.852222 5.754881 -0.116603 0.000008 -0.000003 0.000000 0.000001 -0.000000 
-0.650407 63.982178 1.483282 -18.634235 -6.363854 -7.726774 -0.000001 10.181549 0.131520 5.682383 2.750331 3.535041 10.321393 0.434730 2.336360 10.305097 0.478865 2.391174 -0.000000 16.740366 -2.049018 -3.140084 0.714892 -0.534572 0.000001 9.617851 1.684976 -10.963158 1.966395 3.391766 -0.000000 22.037384 7.501071 -0.000001 0.000000 0.000000 -4.570002 11.014871 -2.160840 3.330924 13.553952 10.938648 -21.906442 27.736471 22.440971 -0.000384 82.871197 0.000398 -9.484435 5.892255 -25.716840 -2.464786 -1.573976 2.681905 7.564647 7.028706 27.703715 -9.818522 -72.226669 -19.707075 -2.646269 -1.527802 1.527815 -2.645426 -31.790023 -7.915085 -1.994580 -1.151603 1.151579 -0.000002 -0.000000 0.000002 -9.108301 -0.517859 2.259798 6.036402 -6.888417 82.440971 4.121024 -6.349617 65.937861 1.115595 -3.782560 32.854573 -0.000004 0.000000 0.000001 -9.532491 0.000019 -0.000008 6.036400 -6.888420 82.440971 4.121024 -6.349619 65.937868 1.115596 -3.782561 32.854569 -0.000000 0.000003 -0.000002 -9.103590 -0.043101 -1.865098 6.036403 -6.888417 82.440964 4.121026 -6.349620 65.937868 1.115599 -3.782561 32.854569 0.000001 0.000001 0.000003 -8.076720 -0.486710 -3.806300 6.036403 -6.888420 82.440971 4.121025 -6.349615 65.937861 1.115589 -3.782565 32.854596 0.000004 0.000002 0.000004 4.570400 11.014685 -2.160816 1.258304 -0.040424 -10.670433 -32.073493 -42.816919 -47.594469 -0.000062 -80.318387 -0.000080 -2.604307 -0.971988 27.177604 2.466108 -1.576208 2.681703 18.241723 -23.305278 -17.628944 53.671616 63.248453 -40.439525 2.647891 -1.528768 1.528746 10.741890 32.760811 -5.296234 1.998925 -1.154067 1.154081 0.000000 0.000003 -0.000004 9.109291 -0.517998 2.259896 6.090335 6.835971 -83.384725 5.535319 6.749085 -78.694550 1.552534 4.360279 -39.183941 -0.000000 0.000003 -0.000002 9.533416 -0.000002 0.000005 6.088415 6.835750 -83.368517 5.537219 6.749461 -78.710772 1.552541 4.360282 -39.183931 0.000003 0.000005 -0.000002 9.104500 -0.043006 -1.865096 6.090333 6.835969 -83.384725 5.535318 6.749088 -78.694550 1.552533 4.360279 -39.183938 -0.000002 -0.000003 -0.000002 8.077803 -0.486888 -3.806305 10.148455 7.303614 -83.373981 5.544914 2.664448 -78.811354 1.552528 4.360283 -39.183935 -0.000002 0.000005 -0.000001 -8.207802 -6.751705 -1.599554 -68.503150 -4.049194 -3.266516 48.610132 -1.219886 -0.144840 36.917210 3.467664 12.254299 -0.000013 0.000002 0.000000 0.000000 0.000001 -0.000000 8.207800 -6.751701 -1.599545 -69.810428 -0.505668 14.402299 93.001577 9.755473 0.540023 -6.270598 2.859707 5.757871 -0.116835 0.000000 0.000001 -0.000000 0.000000 0.000000 
-0.645469 63.986740 1.479969 -18.597977 -6.347527 -7.695546 -0.000000 10.181552 0.131527 5.657611 2.729687 3.562268 10.281678 0.391288 2.380694 10.265671 0.434828 2.434112 -0.000000 16.740381 -2.049019 -3.149469 0.716927 -0.498205 0.000000 9.617854 1.684980 -10.997606 2.053550 3.340659 0.000001 22.037369 7.501070 -0.000000 0.000000 -0.000000 -4.570000 11.014849 -2.160838 3.330769 13.555613 10.927527 -21.838630 27.734791 22.423147 -0.000509 82.998417 0.000533 -9.887931 5.652023 -26.050698 -2.464793 -1.573991 2.681909 7.564648 7.028706 27.703722 -9.818512 -72.226669 -19.707080 -2.646267 -1.527830 1.527804 -2.645433 -31.790019 -7.915084 -1.994580 -1.151582 1.151560 -0.000001 -0.000000 0.000002 -9.108281 -0.517891 2.259802 6.036403 -6.888424 82.440971 4.121022 -6.349614 65.937861 1.115596 -3.782560 32.854576 -0.000001 -0.000000 0.000002 -9.532487 0.000010 -0.000003 6.036402 -6.888422 82.440971 4.121022 -6.349612 65.937861 1.115598 -3.782562 32.854573 -0.000001 0.000000 0.000001 -9.103586 -0.043116 -1.865104 6.036401 -6.888423 82.440964 4.121020 -6.349612 65.937861 1.115597 -3.782563 32.854573 0.000000 0.000005 0.000003 -8.076699 -0.486713 -3.806302 6.036404 -6.888426 82.440971 4.121026 -6.349622 65.937861 1.115591 -3.782563 32.854590 0.000002 0.000000 0.000002 4.570402 11.014668 -2.160814 1.255926 -0.047775 -10.629731 -32.129206 -42.813166 -47.693114 0.000065 -80.317444 0.000047 -2.516984 -0.755380 27.206699 2.466100 -1.576208 2.681712 18.241724 -23.305278 -17.628945 53.671616 63.248460 -40.439518 2.647897 -1.528765 1.528758 10.741891 32.760811 -5.296236 1.998921 -1.154084 1.154078 -0.000001 0.000004 0.000001 9.109302 -0.518004 2.259908 6.090334 6.835969 -83.384732 5.535316 6.749096 -78.694550 1.552535 4.360280 -39.183941 -0.000003 0.000002 -0.000000 9.533403 -0.000014 0.000007 6.088411 6.835753 -83.368510 5.537225 6.749462 -78.710779 1.552546 4.360280 -39.183928 -0.000001 -0.000002 -0.000001 9.104501 -0.042994 -1.865099 6.090336 6.835965 -83.384725 5.535316 6.749087 -78.694550 1.552534 4.360278 -39.183941 0.000002 0.000001 0.000000 8.077819 -0.486896 -3.806293 10.148454 7.303608 -83.373981 5.544911 2.664448 -78.811354 1.552534 4.360285 -39.183945 -0.000002 0.000006 0.000002 -8.207802 -6.751706 -1.599536 -68.537000 -4.031433 -3.301068 48.604774 -1.216763 -0.145180 36.932452 3.466816 12.259694 -0.000016 0.000002 0.000000 -0.000000 0.000000 -0.000000 8.207800 -6.751701 -1.599547 -69.836143 -0.481173 14.360126 92.983736 9.754759 0.540125 -6.267583 2.878041 5.763641 -0.117074 0.000015 0.000003 0.000000 0.000001 0.000000 
